<mxfile host="app.diagrams.net" modified="2023-05-12T07:42:20.007Z" agent="Mozilla/5.0 (Macintosh; Intel Mac OS X 10_15_7) AppleWebKit/537.36 (KHTML, like Gecko) Chrome/112.0.0.0 Safari/537.36" etag="ZsocKOp6MHAlYld3GB64" version="21.2.9" type="github">
  <diagram name="第 1 页" id="uwHExd9-VC8fvrQW-kaj">
    <mxGraphModel dx="1781" dy="615" grid="1" gridSize="10" guides="1" tooltips="1" connect="1" arrows="1" fold="1" page="1" pageScale="1" pageWidth="827" pageHeight="1169" math="0" shadow="0">
      <root>
        <mxCell id="0" />
        <mxCell id="1" parent="0" />
        <mxCell id="Cl9Sqh4QJogCQyD5szkQ-4" style="rounded=0;orthogonalLoop=1;jettySize=auto;html=1;exitX=1;exitY=0.3333333333333333;exitDx=0;exitDy=0;exitPerimeter=0;entryX=0;entryY=0.5;entryDx=0;entryDy=0;" edge="1" parent="1" source="Cl9Sqh4QJogCQyD5szkQ-2" target="Cl9Sqh4QJogCQyD5szkQ-1">
          <mxGeometry relative="1" as="geometry" />
        </mxCell>
        <mxCell id="Cl9Sqh4QJogCQyD5szkQ-2" value="用户" style="shape=umlActor;verticalLabelPosition=bottom;verticalAlign=top;html=1;outlineConnect=0;" vertex="1" parent="1">
          <mxGeometry x="160" y="130" width="30" height="60" as="geometry" />
        </mxCell>
        <mxCell id="Cl9Sqh4QJogCQyD5szkQ-9" value="" style="group" vertex="1" connectable="0" parent="1">
          <mxGeometry x="440" y="80" width="200" height="130" as="geometry" />
        </mxCell>
        <mxCell id="Cl9Sqh4QJogCQyD5szkQ-1" value="" style="rounded=0;whiteSpace=wrap;html=1;container=0;" vertex="1" parent="Cl9Sqh4QJogCQyD5szkQ-9">
          <mxGeometry width="200" height="130" as="geometry" />
        </mxCell>
        <mxCell id="Cl9Sqh4QJogCQyD5szkQ-5" value="Controller" style="rounded=0;whiteSpace=wrap;html=1;container=0;" vertex="1" parent="Cl9Sqh4QJogCQyD5szkQ-9">
          <mxGeometry x="40" y="30" width="120" height="40" as="geometry" />
        </mxCell>
        <mxCell id="Cl9Sqh4QJogCQyD5szkQ-6" value="Service" style="rounded=0;whiteSpace=wrap;html=1;container=0;" vertex="1" parent="Cl9Sqh4QJogCQyD5szkQ-9">
          <mxGeometry x="40" y="80" width="120" height="40" as="geometry" />
        </mxCell>
        <mxCell id="Cl9Sqh4QJogCQyD5szkQ-8" value="前台系统" style="text;html=1;strokeColor=none;fillColor=none;align=center;verticalAlign=middle;whiteSpace=wrap;rounded=0;container=0;" vertex="1" parent="Cl9Sqh4QJogCQyD5szkQ-9">
          <mxGeometry x="70" width="60" height="30" as="geometry" />
        </mxCell>
        <mxCell id="Cl9Sqh4QJogCQyD5szkQ-61" style="edgeStyle=orthogonalEdgeStyle;rounded=0;orthogonalLoop=1;jettySize=auto;html=1;" edge="1" parent="1" source="Cl9Sqh4QJogCQyD5szkQ-10" target="Cl9Sqh4QJogCQyD5szkQ-59">
          <mxGeometry relative="1" as="geometry" />
        </mxCell>
        <mxCell id="Cl9Sqh4QJogCQyD5szkQ-10" value="" style="rounded=0;whiteSpace=wrap;html=1;" vertex="1" parent="1">
          <mxGeometry x="60" y="270" width="690" height="230" as="geometry" />
        </mxCell>
        <mxCell id="Cl9Sqh4QJogCQyD5szkQ-17" value="" style="group" vertex="1" connectable="0" parent="1">
          <mxGeometry x="80" y="290" width="110" height="200" as="geometry" />
        </mxCell>
        <mxCell id="Cl9Sqh4QJogCQyD5szkQ-12" value="" style="rounded=0;whiteSpace=wrap;html=1;container=0;" vertex="1" parent="Cl9Sqh4QJogCQyD5szkQ-17">
          <mxGeometry width="110" height="200" as="geometry" />
        </mxCell>
        <mxCell id="Cl9Sqh4QJogCQyD5szkQ-13" value="Controller" style="rounded=0;whiteSpace=wrap;html=1;container=0;" vertex="1" parent="Cl9Sqh4QJogCQyD5szkQ-17">
          <mxGeometry x="22" y="40" width="66" height="40" as="geometry" />
        </mxCell>
        <mxCell id="Cl9Sqh4QJogCQyD5szkQ-14" value="Service" style="rounded=0;whiteSpace=wrap;html=1;container=0;" vertex="1" parent="Cl9Sqh4QJogCQyD5szkQ-17">
          <mxGeometry x="22" y="90" width="66" height="40" as="geometry" />
        </mxCell>
        <mxCell id="Cl9Sqh4QJogCQyD5szkQ-15" value="商品模块" style="text;html=1;strokeColor=none;fillColor=none;align=center;verticalAlign=middle;whiteSpace=wrap;rounded=0;container=0;" vertex="1" parent="Cl9Sqh4QJogCQyD5szkQ-17">
          <mxGeometry x="38.5" width="33" height="30" as="geometry" />
        </mxCell>
        <mxCell id="Cl9Sqh4QJogCQyD5szkQ-16" value="Mapper" style="rounded=0;whiteSpace=wrap;html=1;container=0;" vertex="1" parent="Cl9Sqh4QJogCQyD5szkQ-17">
          <mxGeometry x="22" y="140" width="66" height="40" as="geometry" />
        </mxCell>
        <mxCell id="Cl9Sqh4QJogCQyD5szkQ-18" value="" style="group" vertex="1" connectable="0" parent="1">
          <mxGeometry x="210" y="290" width="110" height="200" as="geometry" />
        </mxCell>
        <mxCell id="Cl9Sqh4QJogCQyD5szkQ-19" value="" style="rounded=0;whiteSpace=wrap;html=1;container=0;" vertex="1" parent="Cl9Sqh4QJogCQyD5szkQ-18">
          <mxGeometry width="110" height="200" as="geometry" />
        </mxCell>
        <mxCell id="Cl9Sqh4QJogCQyD5szkQ-20" value="Controller" style="rounded=0;whiteSpace=wrap;html=1;container=0;" vertex="1" parent="Cl9Sqh4QJogCQyD5szkQ-18">
          <mxGeometry x="22" y="40" width="66" height="40" as="geometry" />
        </mxCell>
        <mxCell id="Cl9Sqh4QJogCQyD5szkQ-21" value="Service" style="rounded=0;whiteSpace=wrap;html=1;container=0;" vertex="1" parent="Cl9Sqh4QJogCQyD5szkQ-18">
          <mxGeometry x="22" y="90" width="66" height="40" as="geometry" />
        </mxCell>
        <mxCell id="Cl9Sqh4QJogCQyD5szkQ-22" value="订单模块" style="text;html=1;strokeColor=none;fillColor=none;align=center;verticalAlign=middle;whiteSpace=wrap;rounded=0;container=0;" vertex="1" parent="Cl9Sqh4QJogCQyD5szkQ-18">
          <mxGeometry x="38.5" width="33" height="30" as="geometry" />
        </mxCell>
        <mxCell id="Cl9Sqh4QJogCQyD5szkQ-23" value="Mapper" style="rounded=0;whiteSpace=wrap;html=1;container=0;" vertex="1" parent="Cl9Sqh4QJogCQyD5szkQ-18">
          <mxGeometry x="22" y="140" width="66" height="40" as="geometry" />
        </mxCell>
        <mxCell id="Cl9Sqh4QJogCQyD5szkQ-24" value="" style="group" vertex="1" connectable="0" parent="1">
          <mxGeometry x="340" y="290" width="110" height="200" as="geometry" />
        </mxCell>
        <mxCell id="Cl9Sqh4QJogCQyD5szkQ-25" value="" style="rounded=0;whiteSpace=wrap;html=1;container=0;" vertex="1" parent="Cl9Sqh4QJogCQyD5szkQ-24">
          <mxGeometry width="110" height="200" as="geometry" />
        </mxCell>
        <mxCell id="Cl9Sqh4QJogCQyD5szkQ-26" value="Controller" style="rounded=0;whiteSpace=wrap;html=1;container=0;" vertex="1" parent="Cl9Sqh4QJogCQyD5szkQ-24">
          <mxGeometry x="22" y="40" width="66" height="40" as="geometry" />
        </mxCell>
        <mxCell id="Cl9Sqh4QJogCQyD5szkQ-27" value="Service" style="rounded=0;whiteSpace=wrap;html=1;container=0;" vertex="1" parent="Cl9Sqh4QJogCQyD5szkQ-24">
          <mxGeometry x="22" y="90" width="66" height="40" as="geometry" />
        </mxCell>
        <mxCell id="Cl9Sqh4QJogCQyD5szkQ-28" value="个人中心模块" style="text;html=1;strokeColor=none;fillColor=none;align=center;verticalAlign=middle;whiteSpace=wrap;rounded=0;container=0;" vertex="1" parent="Cl9Sqh4QJogCQyD5szkQ-24">
          <mxGeometry x="29.25" width="51.5" height="30" as="geometry" />
        </mxCell>
        <mxCell id="Cl9Sqh4QJogCQyD5szkQ-29" value="Mapper" style="rounded=0;whiteSpace=wrap;html=1;container=0;" vertex="1" parent="Cl9Sqh4QJogCQyD5szkQ-24">
          <mxGeometry x="22" y="140" width="66" height="40" as="geometry" />
        </mxCell>
        <mxCell id="Cl9Sqh4QJogCQyD5szkQ-31" value="" style="group" vertex="1" connectable="0" parent="1">
          <mxGeometry x="470" y="290" width="110" height="200" as="geometry" />
        </mxCell>
        <mxCell id="Cl9Sqh4QJogCQyD5szkQ-32" value="" style="rounded=0;whiteSpace=wrap;html=1;container=0;" vertex="1" parent="Cl9Sqh4QJogCQyD5szkQ-31">
          <mxGeometry width="110" height="200" as="geometry" />
        </mxCell>
        <mxCell id="Cl9Sqh4QJogCQyD5szkQ-33" value="Controller" style="rounded=0;whiteSpace=wrap;html=1;container=0;" vertex="1" parent="Cl9Sqh4QJogCQyD5szkQ-31">
          <mxGeometry x="22" y="40" width="66" height="40" as="geometry" />
        </mxCell>
        <mxCell id="Cl9Sqh4QJogCQyD5szkQ-34" value="Service" style="rounded=0;whiteSpace=wrap;html=1;container=0;" vertex="1" parent="Cl9Sqh4QJogCQyD5szkQ-31">
          <mxGeometry x="22" y="90" width="66" height="40" as="geometry" />
        </mxCell>
        <mxCell id="Cl9Sqh4QJogCQyD5szkQ-35" value="注册与登陆模块" style="text;html=1;strokeColor=none;fillColor=none;align=center;verticalAlign=middle;whiteSpace=wrap;rounded=0;container=0;" vertex="1" parent="Cl9Sqh4QJogCQyD5szkQ-31">
          <mxGeometry x="26.5" width="61.5" height="30" as="geometry" />
        </mxCell>
        <mxCell id="Cl9Sqh4QJogCQyD5szkQ-36" value="Mapper" style="rounded=0;whiteSpace=wrap;html=1;container=0;" vertex="1" parent="Cl9Sqh4QJogCQyD5szkQ-31">
          <mxGeometry x="22" y="140" width="66" height="40" as="geometry" />
        </mxCell>
        <mxCell id="Cl9Sqh4QJogCQyD5szkQ-38" value="" style="group" vertex="1" connectable="0" parent="1">
          <mxGeometry x="600" y="290" width="110" height="200" as="geometry" />
        </mxCell>
        <mxCell id="Cl9Sqh4QJogCQyD5szkQ-39" value="" style="rounded=0;whiteSpace=wrap;html=1;container=0;" vertex="1" parent="Cl9Sqh4QJogCQyD5szkQ-38">
          <mxGeometry width="110" height="200" as="geometry" />
        </mxCell>
        <mxCell id="Cl9Sqh4QJogCQyD5szkQ-40" value="Controller" style="rounded=0;whiteSpace=wrap;html=1;container=0;" vertex="1" parent="Cl9Sqh4QJogCQyD5szkQ-38">
          <mxGeometry x="22" y="40" width="66" height="40" as="geometry" />
        </mxCell>
        <mxCell id="Cl9Sqh4QJogCQyD5szkQ-41" value="Service" style="rounded=0;whiteSpace=wrap;html=1;container=0;" vertex="1" parent="Cl9Sqh4QJogCQyD5szkQ-38">
          <mxGeometry x="22" y="90" width="66" height="40" as="geometry" />
        </mxCell>
        <mxCell id="Cl9Sqh4QJogCQyD5szkQ-42" value="购物车模块" style="text;html=1;strokeColor=none;fillColor=none;align=center;verticalAlign=middle;whiteSpace=wrap;rounded=0;container=0;" vertex="1" parent="Cl9Sqh4QJogCQyD5szkQ-38">
          <mxGeometry x="34.25" width="41.5" height="30" as="geometry" />
        </mxCell>
        <mxCell id="Cl9Sqh4QJogCQyD5szkQ-43" value="Mapper" style="rounded=0;whiteSpace=wrap;html=1;container=0;" vertex="1" parent="Cl9Sqh4QJogCQyD5szkQ-38">
          <mxGeometry x="22" y="140" width="66" height="40" as="geometry" />
        </mxCell>
        <mxCell id="Cl9Sqh4QJogCQyD5szkQ-71" style="edgeStyle=orthogonalEdgeStyle;rounded=0;orthogonalLoop=1;jettySize=auto;html=1;exitX=1;exitY=0.3333333333333333;exitDx=0;exitDy=0;exitPerimeter=0;entryX=0.5;entryY=0;entryDx=0;entryDy=0;" edge="1" parent="1" source="Cl9Sqh4QJogCQyD5szkQ-45" target="Cl9Sqh4QJogCQyD5szkQ-52">
          <mxGeometry relative="1" as="geometry">
            <Array as="points">
              <mxPoint x="920" y="300" />
              <mxPoint x="920" y="413" />
              <mxPoint x="835" y="413" />
            </Array>
          </mxGeometry>
        </mxCell>
        <mxCell id="Cl9Sqh4QJogCQyD5szkQ-45" value="卖家与平台运营人员" style="shape=umlActor;verticalLabelPosition=bottom;verticalAlign=top;html=1;outlineConnect=0;" vertex="1" parent="1">
          <mxGeometry x="820" y="280" width="30" height="60" as="geometry" />
        </mxCell>
        <mxCell id="Cl9Sqh4QJogCQyD5szkQ-48" value="" style="group" vertex="1" connectable="0" parent="1">
          <mxGeometry x="780" y="485" width="110" height="200" as="geometry" />
        </mxCell>
        <mxCell id="Cl9Sqh4QJogCQyD5szkQ-49" value="" style="rounded=0;whiteSpace=wrap;html=1;container=0;" vertex="1" parent="Cl9Sqh4QJogCQyD5szkQ-48">
          <mxGeometry width="110" height="200" as="geometry" />
        </mxCell>
        <mxCell id="Cl9Sqh4QJogCQyD5szkQ-50" value="Controller" style="rounded=0;whiteSpace=wrap;html=1;container=0;" vertex="1" parent="Cl9Sqh4QJogCQyD5szkQ-48">
          <mxGeometry x="22" y="40" width="66" height="40" as="geometry" />
        </mxCell>
        <mxCell id="Cl9Sqh4QJogCQyD5szkQ-51" value="Service" style="rounded=0;whiteSpace=wrap;html=1;container=0;" vertex="1" parent="Cl9Sqh4QJogCQyD5szkQ-48">
          <mxGeometry x="22" y="90" width="66" height="40" as="geometry" />
        </mxCell>
        <mxCell id="Cl9Sqh4QJogCQyD5szkQ-52" value="后台管理系统" style="text;html=1;strokeColor=none;fillColor=none;align=center;verticalAlign=middle;whiteSpace=wrap;rounded=0;container=0;" vertex="1" parent="Cl9Sqh4QJogCQyD5szkQ-48">
          <mxGeometry x="27.13" width="55.75" height="30" as="geometry" />
        </mxCell>
        <mxCell id="Cl9Sqh4QJogCQyD5szkQ-53" value="Mapper" style="rounded=0;whiteSpace=wrap;html=1;container=0;" vertex="1" parent="Cl9Sqh4QJogCQyD5szkQ-48">
          <mxGeometry x="22" y="140" width="66" height="40" as="geometry" />
        </mxCell>
        <mxCell id="Cl9Sqh4QJogCQyD5szkQ-54" value="" style="endArrow=none;dashed=1;html=1;dashPattern=1 3;strokeWidth=2;rounded=0;" edge="1" parent="1">
          <mxGeometry width="50" height="50" relative="1" as="geometry">
            <mxPoint x="-50" y="250" as="sourcePoint" />
            <mxPoint x="760" y="250" as="targetPoint" />
          </mxGeometry>
        </mxCell>
        <mxCell id="Cl9Sqh4QJogCQyD5szkQ-55" value="&lt;b&gt;表现层&lt;/b&gt;" style="text;html=1;strokeColor=none;fillColor=none;align=center;verticalAlign=middle;whiteSpace=wrap;rounded=0;" vertex="1" parent="1">
          <mxGeometry x="-20" y="145" width="60" height="30" as="geometry" />
        </mxCell>
        <mxCell id="Cl9Sqh4QJogCQyD5szkQ-56" value="&lt;b&gt;接口服务层&lt;/b&gt;" style="text;html=1;strokeColor=none;fillColor=none;align=center;verticalAlign=middle;whiteSpace=wrap;rounded=0;" vertex="1" parent="1">
          <mxGeometry x="-30" y="375" width="70" height="30" as="geometry" />
        </mxCell>
        <mxCell id="Cl9Sqh4QJogCQyD5szkQ-57" value="" style="endArrow=none;dashed=1;html=1;dashPattern=1 3;strokeWidth=2;rounded=0;" edge="1" parent="1">
          <mxGeometry width="50" height="50" relative="1" as="geometry">
            <mxPoint x="-60" y="530" as="sourcePoint" />
            <mxPoint x="750" y="530" as="targetPoint" />
          </mxGeometry>
        </mxCell>
        <mxCell id="Cl9Sqh4QJogCQyD5szkQ-58" value="&lt;b&gt;缓存层&lt;/b&gt;" style="text;html=1;strokeColor=none;fillColor=none;align=center;verticalAlign=middle;whiteSpace=wrap;rounded=0;" vertex="1" parent="1">
          <mxGeometry x="-25" y="585" width="70" height="30" as="geometry" />
        </mxCell>
        <mxCell id="Cl9Sqh4QJogCQyD5szkQ-66" style="edgeStyle=orthogonalEdgeStyle;rounded=0;orthogonalLoop=1;jettySize=auto;html=1;exitX=0.25;exitY=1;exitDx=0;exitDy=0;entryX=0.25;entryY=0;entryDx=0;entryDy=0;" edge="1" parent="1" source="Cl9Sqh4QJogCQyD5szkQ-59" target="Cl9Sqh4QJogCQyD5szkQ-64">
          <mxGeometry relative="1" as="geometry" />
        </mxCell>
        <mxCell id="Cl9Sqh4QJogCQyD5szkQ-59" value="Redis 缓存" style="rounded=0;whiteSpace=wrap;html=1;" vertex="1" parent="1">
          <mxGeometry x="55" y="572.5" width="700" height="55" as="geometry" />
        </mxCell>
        <mxCell id="Cl9Sqh4QJogCQyD5szkQ-62" value="" style="endArrow=none;dashed=1;html=1;dashPattern=1 3;strokeWidth=2;rounded=0;" edge="1" parent="1">
          <mxGeometry width="50" height="50" relative="1" as="geometry">
            <mxPoint x="-40" y="670" as="sourcePoint" />
            <mxPoint x="770" y="670" as="targetPoint" />
          </mxGeometry>
        </mxCell>
        <mxCell id="Cl9Sqh4QJogCQyD5szkQ-63" value="&lt;b&gt;持久层&lt;/b&gt;" style="text;html=1;strokeColor=none;fillColor=none;align=center;verticalAlign=middle;whiteSpace=wrap;rounded=0;" vertex="1" parent="1">
          <mxGeometry x="-25" y="720" width="70" height="30" as="geometry" />
        </mxCell>
        <mxCell id="Cl9Sqh4QJogCQyD5szkQ-67" style="edgeStyle=orthogonalEdgeStyle;rounded=0;orthogonalLoop=1;jettySize=auto;html=1;exitX=0.75;exitY=0;exitDx=0;exitDy=0;entryX=0.75;entryY=1;entryDx=0;entryDy=0;" edge="1" parent="1" source="Cl9Sqh4QJogCQyD5szkQ-64" target="Cl9Sqh4QJogCQyD5szkQ-59">
          <mxGeometry relative="1" as="geometry" />
        </mxCell>
        <mxCell id="Cl9Sqh4QJogCQyD5szkQ-64" value="MySQL 数据库" style="rounded=0;whiteSpace=wrap;html=1;" vertex="1" parent="1">
          <mxGeometry x="55" y="700" width="700" height="55" as="geometry" />
        </mxCell>
        <mxCell id="Cl9Sqh4QJogCQyD5szkQ-68" style="edgeStyle=orthogonalEdgeStyle;rounded=0;orthogonalLoop=1;jettySize=auto;html=1;exitX=0.5;exitY=1;exitDx=0;exitDy=0;entryX=1;entryY=0.5;entryDx=0;entryDy=0;" edge="1" parent="1" source="Cl9Sqh4QJogCQyD5szkQ-49" target="Cl9Sqh4QJogCQyD5szkQ-64">
          <mxGeometry relative="1" as="geometry" />
        </mxCell>
      </root>
    </mxGraphModel>
  </diagram>
</mxfile>
